<?xml version="1.0" standalone="no"?>
<!-- Generator: Adobe Fireworks 10, Export SVG Extension by Aaron Beall (http://fireworks.abeall.com) . Version: 0.6.0  -->
<!DOCTYPE svg PUBLIC "-//W3C//DTD SVG 1.1//EN" "http://www.w3.org/Graphics/SVG/1.1/DTD/svg11.dtd">
<svg id="" viewBox="0 0 248 48" style="background-color:#ffffff00" version="1.1"
	xmlns="http://www.w3.org/2000/svg" xmlns:xlink="http://www.w3.org/1999/xlink" xml:space="preserve"
	x="0px" y="0px" width="248px" height="48px"
>
	<g id="Layer_1_1">
		<path d="M 13.9828 14.9059 C 13.9828 14.9059 3.7151 9.7528 0.6822 8.2686 C 0.3392 8.1008 0 8.2415 0.001 8.6211 L 0 22.0762 C 0 22.4907 0.4017 22.6374 0.7443 22.4641 L 13.9818 15.7713 C 14.3821 15.5556 14.3762 15.1037 13.9828 14.9059 Z" fill="#dc2727"/>
		<path d="M 123.9228 23.1523 L 116.0116 14.5524 L 122.5691 7.3535 C 122.6473 7.2673 122.6668 7.1472 122.6199 7.0404 C 122.574 6.9331 122.4723 6.8661 122.356 6.8661 L 118.4767 6.8661 C 118.3955 6.8661 118.3183 6.9006 118.2636 6.9602 L 111.7433 14.1035 L 111.7433 0.2909 C 111.7433 0.1305 111.6143 0 111.4549 0 L 108.2461 0 C 108.0868 0 107.9578 0.1305 107.9578 0.2909 L 107.9578 23.3502 C 107.9578 23.5107 108.0868 23.6416 108.2461 23.6416 L 111.4549 23.6416 C 111.6143 23.6416 111.7433 23.5107 111.7433 23.3502 L 111.7433 15.3637 L 119.1902 23.5471 C 119.2449 23.6072 119.3221 23.6416 119.4032 23.6416 L 123.7107 23.6416 C 123.827 23.6416 123.9286 23.5737 123.9756 23.4664 C 124.0215 23.3591 124.002 23.239 123.9228 23.1523 ZM 96.308 6.5068 C 93.9134 6.5068 91.681 7.4135 90.0233 9.0592 C 88.3725 10.6975 87.4635 12.8905 87.4635 15.2357 C 87.4635 20.1505 91.3487 24 96.308 24 C 98.6812 24 100.8217 23.1267 102.498 21.4757 C 104.1615 19.8364 105.1155 17.5631 105.1155 15.2357 C 105.1155 12.9255 104.2104 10.793 102.498 9.0676 C 100.8217 7.4165 98.6225 6.5068 96.308 6.5068 ZM 101.1521 15.2357 C 101.1521 16.613 100.6428 17.8988 99.7182 18.8568 C 98.8014 19.8069 97.5767 20.3306 96.2719 20.3306 C 93.5361 20.3306 91.3926 18.0928 91.3926 15.2357 C 91.3926 12.4465 93.5811 10.1766 96.2719 10.1766 C 98.9627 10.1766 101.1521 12.4465 101.1521 15.2357 ZM 85.3894 20.0067 L 83.2616 20.0067 C 81.8092 20.0067 80.6284 18.8164 80.6284 17.3544 L 80.6284 10.2485 L 85.3386 10.2485 C 85.5126 10.2485 85.6543 10.1058 85.6543 9.9305 L 85.6543 7.1841 C 85.6543 7.0089 85.5126 6.8661 85.3386 6.8661 L 80.6284 6.8661 L 80.6284 2.9477 C 80.6284 2.7995 80.5092 2.6789 80.3616 2.6789 L 79.9736 2.6789 C 79.9697 2.6789 79.61 2.6957 79.5445 2.7675 L 74.1423 8.9681 C 74.0896 9.0297 74.0622 9.1025 74.0622 9.1788 L 74.0622 9.9994 C 74.0622 10.1368 74.1736 10.2485 74.3095 10.2485 L 76.8068 10.2485 L 76.8068 17.7492 C 76.8068 21.0198 79.4477 23.68 82.6947 23.68 L 85.3435 23.68 C 85.4285 23.68 85.5086 23.6466 85.5683 23.5865 C 85.6298 23.5255 85.6631 23.4437 85.6631 23.3571 L 85.6631 20.2814 C 85.6631 20.1298 85.5399 20.0067 85.3894 20.0067 ZM 47.8598 6.5068 C 45.4652 6.5068 43.2333 7.4135 41.5746 9.0592 C 39.9247 10.6975 39.0162 12.891 39.0162 15.2357 C 39.0162 20.1505 42.9004 24 47.8598 24 C 50.2335 24 52.374 23.1267 54.0498 21.4757 C 55.7133 19.8374 56.6677 17.5631 56.6677 15.2357 C 56.6677 12.9255 55.7627 10.793 54.0498 9.0676 C 52.3735 7.4165 50.1748 6.5068 47.8598 6.5068 ZM 52.7034 15.2357 C 52.7034 16.613 52.1946 17.8988 51.2705 18.8568 C 50.3532 19.8069 49.1295 20.3306 47.8237 20.3306 C 45.0879 20.3306 42.9444 18.0928 42.9444 15.2357 C 42.9444 12.4465 45.1333 10.1766 47.8237 10.1766 C 50.5149 10.1766 52.7034 12.4465 52.7034 15.2357 ZM 38.375 6.528 L 34.8241 6.528 C 34.7093 6.528 34.6052 6.5969 34.5597 6.7032 L 30.1814 16.8454 L 25.4977 6.6963 C 25.4508 6.5944 25.3481 6.528 25.2357 6.528 L 21.6247 6.528 C 21.525 6.528 21.4336 6.5787 21.3808 6.6633 C 21.3276 6.748 21.3212 6.8524 21.3637 6.9429 L 29.0984 23.4595 C 29.1463 23.5609 29.2485 23.6259 29.3599 23.6259 L 30.9609 23.6259 C 31.0738 23.6259 31.1769 23.5589 31.2238 23.4546 L 38.638 6.9385 C 38.6785 6.8484 38.6712 6.7446 38.6174 6.6614 C 38.5642 6.5777 38.4733 6.528 38.375 6.528 ZM 67.5507 13.815 L 65.1619 13.307 C 64.1591 13.0712 63.0082 12.6596 63.0082 11.5648 C 63.0082 10.5719 64.0438 9.8513 65.4718 9.8513 C 66.7238 9.8513 67.8146 10.4932 68.2515 11.4856 C 68.3033 11.6042 68.4196 11.6805 68.5486 11.6805 L 72.1074 11.6805 C 72.1856 11.6805 72.2579 11.6451 72.3058 11.584 C 72.3537 11.523 72.3713 11.4447 72.3537 11.3689 C 71.6842 8.5147 68.9699 6.5211 65.7523 6.5211 C 62.5811 6.5211 59.2999 8.4537 59.2999 11.6869 C 59.2999 14.1468 61.1721 15.9308 64.5725 16.7105 C 64.8961 16.7853 65.2821 16.8602 65.6917 16.9399 L 66.498 17.0994 C 68.1782 17.445 68.8956 17.9471 68.8956 18.78 C 68.8956 19.6828 67.9671 20.5925 65.894 20.5925 C 64.1141 20.5925 63.0277 19.8807 62.5737 18.4167 C 62.5322 18.2838 62.4105 18.1922 62.2698 18.1903 L 58.927 18.1302 C 58.822 18.1302 58.7301 18.1755 58.6685 18.2543 C 58.6059 18.335 58.5849 18.4374 58.6103 18.5358 L 58.7257 18.9838 C 59.5193 22.0782 62.2859 24 65.9448 24 C 67.7315 24 69.4039 23.4595 70.652 22.4769 C 71.9031 21.4944 72.5912 20.181 72.5912 18.78 C 72.5912 16.1542 70.8954 14.4835 67.5507 13.815 Z" fill="#081d52"/>
	</g>
</svg>