<?xml version="1.0" encoding="UTF-8"?>
<svg width="120px" height="24px" viewBox="0 0 120 24" version="1.1" xmlns="http://www.w3.org/2000/svg" xmlns:xlink="http://www.w3.org/1999/xlink">
    <!-- Generator: Sketch 56.2 (81672) - https://sketch.com -->
    <title>Vostok/logo/waves_enterprise_color_120 Copy</title>
    <desc>Created with Sketch.</desc>
    <g id="Rebranding" stroke="none" stroke-width="1" fill="none" fill-rule="evenodd">
        <g id="Rebranding-—-Logo-Waves-Enterprise" transform="translate(-240.000000, -182.000000)">
            <g id="Vostok/logo/waves_enterprise_color_120-Copy" transform="translate(240.000000, 182.000000)">
                <g id="Vostok/logo/waves_enterprise_color_120" transform="translate(0.000000, -0.000000)">
                    <g id="logo_WE_small">
                        <polygon id="Fill-11" fill="#00A87A" points="108.047529 -1.42108547e-14 108.047529 11.6018824 113.953412 5.80094118"></polygon>
                        <polygon id="Fill-12" fill="#000000" points="119.820235 -1.42108547e-14 119.820235 11.6018824 113.913882 5.80094118"></polygon>
                        <polygon id="Fill-13" fill="#000000" points="23.4377412 5.73896471 23.0824471 6.06037647 19.6071529 17.7535529 19.5892706 17.7653176 15.6928 6.04672941 15.3417412 5.73896471 11.8019765 5.73896471 11.4509176 6.04672941 7.57938824 17.6820235 7.51491765 17.6481412 7.49609412 17.6330824 4.02456471 6.05943529 3.66974118 5.73896471 0.231623529 5.73896471 9.41176471e-05 6.05190588 5.40762353 22.5253176 5.79021176 22.8570824 9.20056471 22.8570824 9.58315294 22.5253176 13.4485647 10.7389647 13.5219765 10.7394353 17.4123294 22.5262588 17.7944471 22.8570824 21.2480941 22.8570824 21.6302118 22.5253176 27.0382118 6.05190588 26.8062118 5.73896471"></polygon>
                        <polygon id="Fill-14" fill="#000000" points="23.4376471 5.73887059 23.0823529 6.06028235 19.6070588 17.7534588 19.5896471 17.7652235 15.6931765 6.04663529 15.3416471 5.73887059 11.8018824 5.73887059 11.4508235 6.04663529 7.57929412 17.6824 7.51482353 17.6480471 7.496 17.6334588 4.02494118 6.05934118 3.66964706 5.73887059 0.231529412 5.73887059 0 6.05181176 5.40752941 22.5256941 5.79011765 22.8569882 9.20047059 22.8569882 9.58305882 22.5256941 13.4484706 10.7388706 13.5218824 10.7393412 17.4122353 22.5261647 17.7943529 22.8569882 21.248 22.8569882 21.6305882 22.5256941 27.0381176 6.05181176 26.8065882 5.73887059"></polygon>
                        <polygon id="Fill-15" fill="#000000" points="23.4376471 5.73887059 23.0823529 6.06028235 19.6070588 17.7534588 19.5896471 17.7652235 15.6931765 6.04663529 15.3416471 5.73887059 11.8018824 5.73887059 11.4508235 6.04663529 7.57929412 17.6824 7.51482353 17.6480471 7.496 17.6334588 4.02494118 6.05934118 3.66964706 5.73887059 0.231529412 5.73887059 0 6.05181176 5.40752941 22.5256941 5.79011765 22.8569882 9.20047059 22.8569882 9.58305882 22.5256941 13.4484706 10.7388706 13.5218824 10.7393412 17.4122353 22.5261647 17.7943529 22.8569882 21.248 22.8569882 21.6305882 22.5256941 27.0381176 6.05181176 26.8065882 5.73887059"></polygon>
                        <polygon id="Fill-16" fill="#000000" points="65.0936471 5.73896471 61.6861176 5.73896471 61.3124706 6.04578824 56.5449412 18.2344941 56.5049412 18.2636706 51.7915294 6.04767059 51.4174118 5.73896471 47.9416471 5.73896471 47.7308235 6.04578824 54.5162353 22.5380235 54.9171765 22.8570824 58.0503529 22.8570824 58.4498824 22.5394353 65.304 6.04672941"></polygon>
                        <polygon id="Fill-17" fill="#000000" points="61.6856471 5.73887059 61.312 6.04569412 56.5449412 18.2344 56.5044706 18.2635765 51.7910588 6.04757647 51.4174118 5.73887059 47.9416471 5.73887059 47.7308235 6.04569412 54.5162353 22.5379294 54.9167059 22.8569882 58.0498824 22.8569882 58.4494118 22.5393412 65.304 6.04663529 65.0931765 5.73887059"></polygon>
                        <polygon id="Fill-18" fill="#000000" points="61.6856471 5.73887059 61.312 6.04569412 56.5449412 18.2344 56.5044706 18.2635765 51.7910588 6.04757647 51.4174118 5.73887059 47.9416471 5.73887059 47.7308235 6.04569412 54.5162353 22.5379294 54.9167059 22.8569882 58.0498824 22.8569882 58.4494118 22.5393412 65.304 6.04663529 65.0931765 5.73887059"></polygon>
                        <path d="M70.0282353,12.1709176 C70.5905882,10.1530353 72.3091765,8.65985882 74.5708235,8.65985882 C77.5595294,8.65985882 78.8009412,10.7346824 79.1538824,12.1709176 L70.0282353,12.1709176 Z M82.6352941,15.2245647 L82.96,14.9111529 L82.9689412,14.4193882 C82.9689412,11.7478588 82.1985882,9.44009412 80.6795294,7.83632941 C79.1543529,6.22691765 77.0988235,5.41091765 74.5712941,5.41091765 C72.1312941,5.41091765 70.0974118,6.29515294 68.5275294,8.03868235 C66.9656471,9.77327059 66.1736471,11.8730353 66.1736471,14.2805647 C66.1736471,16.8231529 66.9901176,18.9586824 68.6009412,20.6273882 C70.2150588,22.3008 72.3378824,23.1502118 74.9110588,23.1502118 C76.7647059,23.1502118 78.3548235,22.7069176 79.6371765,21.8335059 C80.9152941,20.9629176 82.264,19.5384471 82.7242353,17.5850353 L82.4729412,17.2626824 L79.2974118,17.2626824 L78.8564706,17.5798588 C78.0583529,19.1497412 76.8404706,19.8923294 74.8428235,19.8923294 C73.5327059,19.8923294 72.3727059,19.4358588 71.3952941,18.5360941 C70.4705882,17.6857412 69.9378824,16.6645647 69.8094118,15.2217412 L82.6352941,15.2245647 Z" id="Fill-19" fill="#000000"></path>
                        <path d="M40.4182118,18.392 C39.4365647,19.4089412 38.2648,19.9091765 36.8643294,19.9091765 C35.4864471,19.9091765 34.4822118,19.4032941 33.4902118,18.3755294 C32.5019765,17.3529412 32.0040941,15.9802353 32.0040941,14.28 C32.0040941,12.5807059 32.5019765,11.208 33.4902118,10.1849412 C34.4822118,9.15717647 35.4864471,8.65129412 36.8643294,8.65129412 C38.2648,8.65129412 39.4365647,9.15152941 40.4182118,10.168 C41.0591529,10.8324706 41.4902118,11.6555294 41.7118588,12.6282353 L41.7118588,15.9317647 C41.4902118,16.9049412 41.0591529,17.7275294 40.4182118,18.392 L40.4182118,18.392 Z M42.2120941,5.73882353 L41.8873882,6.05835294 L41.8873882,7.76188235 L41.8318588,7.82682353 C41.3857412,7.25976471 40.7993882,6.76658824 40.0765647,6.35105882 C39.9132706,6.25694118 39.7443294,6.16847059 39.5697412,6.08564706 C38.6097412,5.63105882 37.5353882,5.40235294 36.3589176,5.40235294 C34.1593882,5.40235294 32.2473882,6.26023529 30.6539765,7.96188235 C29.0652706,9.65741176 28.2643294,11.7755294 28.2643294,14.28 C28.2643294,16.7844706 29.0652706,18.9025882 30.6539765,20.5981176 C32.2473882,22.3002353 34.1593882,23.1576471 36.3589176,23.1576471 C37.5269176,23.1576471 38.5951529,22.9317647 39.5509176,22.4823529 C39.7377412,22.3943529 39.9184471,22.3002353 40.0930353,22.1990588 C40.7852706,21.7971765 41.3509176,21.3237647 41.7862118,20.7811765 C41.8017412,20.7656471 41.8723294,20.7929412 41.8873882,20.7764706 L41.8873882,22.5383529 L42.2120941,22.8569412 L45.1123294,22.8569412 L45.4370353,22.5383529 L45.4370353,6.05835294 L45.1123294,5.73882353 L42.2120941,5.73882353 Z" id="Fill-20" fill="#000000"></path>
                        <path d="M94.9035294,12.9552 C94.9035294,12.9552 93.0056471,12.5646118 91.4348235,12.2074353 C89.9891765,11.8784941 89.2762353,11.4709647 89.2762353,10.4592 C89.2762353,9.38908235 90.3185882,8.51284706 92.5472941,8.51284706 C94.7284706,8.51284706 95.9425882,9.47802353 95.9425882,10.3104941 L96.3237647,10.6380235 L99.4992941,10.6380235 L99.7534118,10.3269647 C99.7534118,8.10014118 97.7788235,5.41214118 92.6287059,5.41214118 C87.2508235,5.41214118 85.5689412,8.50767059 85.5689412,10.5072 C85.5689412,12.1801412 86.1830588,14.1622588 90.3030588,15.0992 C90.3030588,15.0992 92.2691765,15.5255529 93.8409412,15.8784941 C95.6291765,16.2799059 96.3802353,16.8709647 96.3802353,17.9062588 C96.3802353,18.8399059 95.4287059,19.9599059 92.9534118,19.9599059 C90.6461176,19.9599059 89.2569412,18.8681412 89.1924706,17.5834353 L88.7924706,17.2648471 L85.5449412,17.2648471 L85.2945882,17.5876706 C85.5910588,20.4568471 87.7529412,23.1519059 92.9317647,23.1519059 C98.7887059,23.1519059 99.9872941,19.6389647 99.9872941,17.7923765 C99.9872941,15.3575529 98.552,13.7354353 94.9035294,12.9552" id="Fill-25" fill="#000000"></path>
                    </g>
                </g>
            </g>
        </g>
    </g>
</svg>