<svg xmlns="http://www.w3.org/2000/svg" width="213" height="29" viewBox="0 0 213 29">
    <g fill="none" fill-rule="evenodd">
        <path fill="#FFF" d="M-16-16h1422v5000H-16z"/>
        <path fill="#081E58" d="M-16-16h300v5000H-16z"/>
        <g fill-rule="nonzero">
            <path fill="#FF2615" d="M16.646 17.247S4.423 11.137.812 9.377c-.408-.2-.813-.032-.81.418L0 25.749c0 .492.478.666.886.46l15.76-7.937c.476-.254.469-.79 0-1.025"/>
            <path fill="#EEEEEF" d="M81.875 16.639l-2.902-.58c-1.218-.27-2.617-.741-2.617-1.994 0-1.136 1.259-1.96 2.993-1.96 1.522 0 2.848.733 3.378 1.87a.396.396 0 0 0 .36.222h4.325c.095 0 .183-.04.24-.11.06-.07.08-.16.059-.246-.814-3.266-4.112-5.547-8.02-5.547-3.854 0-7.84 2.21-7.84 5.91 0 2.816 2.274 4.857 6.406 5.75.394.084.863.17 1.36.26.318.06.65.12.98.183 2.041.396 2.912.971 2.912 1.924 0 1.032-1.127 2.074-3.647 2.074-2.162 0-3.482-.815-4.033-2.49a.392.392 0 0 0-.37-.26l-4.061-.067h-.005a.396.396 0 0 0-.31.141.352.352 0 0 0-.07.323l.14.511c.965 3.541 4.326 5.74 8.771 5.74 2.171 0 4.202-.618 5.72-1.742C87.163 25.427 88 23.924 88 22.321c0-3.005-2.061-4.917-6.125-5.682M47.667 7.294h-4.098a.332.332 0 0 0-.306.204L38.21 19.362 32.804 7.491a.333.333 0 0 0-.302-.197h-4.168c-.115 0-.22.059-.282.158a.342.342 0 0 0-.02.327l8.928 19.32a.335.335 0 0 0 .302.195h1.847c.13 0 .25-.08.304-.2l8.557-19.32a.343.343 0 0 0-.023-.324.33.33 0 0 0-.28-.156M64.509 18.273c0 1.575-.577 3.046-1.624 4.14a5.365 5.365 0 0 1-3.906 1.685c-3.1 0-5.528-2.558-5.528-5.825 0-3.189 2.48-5.784 5.528-5.784 3.05 0 5.53 2.595 5.53 5.784m-5.49-9.98c-2.712 0-5.241 1.037-7.12 2.919-1.87 1.872-2.899 4.38-2.899 7.061 0 5.619 4.4 10.02 10.02 10.02 2.69 0 5.115-.998 7.014-2.885A10.126 10.126 0 0 0 69 18.273c0-2.64-1.026-5.08-2.966-7.052-1.9-1.888-4.39-2.927-7.014-2.927M100.101 22.92c-1.752 0-3.177-1.415-3.177-3.156v-8.46h5.684a.38.38 0 0 0 .382-.378V7.657a.38.38 0 0 0-.382-.379h-5.684V2.614a.32.32 0 0 0-.321-.32h-.47c-.003 0-.438.02-.517.106l-6.52 7.38a.38.38 0 0 0-.096.252v.976c0 .164.134.297.299.297h3.013v8.929c0 3.893 3.188 7.06 7.106 7.06h3.196a.382.382 0 0 0 .386-.385v-3.66a.33.33 0 0 0-.33-.329H100.1zM120.508 18.273c0 1.575-.576 3.045-1.623 4.14a5.366 5.366 0 0 1-3.905 1.685c-3.1 0-5.529-2.558-5.529-5.825 0-3.189 2.48-5.784 5.53-5.784 3.048 0 5.527 2.595 5.527 5.784m-5.488-9.98c-2.713 0-5.242 1.037-7.12 2.919-1.87 1.872-2.9 4.38-2.9 7.061 0 5.619 4.401 10.02 10.02 10.02 2.69 0 5.115-.998 7.014-2.885A10.127 10.127 0 0 0 125 18.273c0-2.64-1.025-5.08-2.966-7.052-1.9-1.888-4.39-2.927-7.014-2.927M138.54 16.914l7.765-8.221a.321.321 0 0 0 .062-.359.339.339 0 0 0-.314-.198h-4.594a.35.35 0 0 0-.252.107l-7.723 8.159V.626a.338.338 0 0 0-.342-.332h-3.8a.338.338 0 0 0-.342.332v26.336c0 .183.153.332.342.332h3.8a.337.337 0 0 0 .342-.332V17.84l8.82 9.346a.347.347 0 0 0 .252.108h5.102a.337.337 0 0 0 .313-.2.32.32 0 0 0-.063-.358l-9.369-9.822z"/>
        </g>
        <path fill="#FF2615" d="M162.253 26.199c2.476 0 4.416-1.634 4.416-5.054v-.204c0-3.42-1.633-5.029-4.237-5.029-2.654 0-4.237 1.864-4.237 5.105v.205c0 3.369 1.812 4.977 4.058 4.977zm-.23 1.76c-3.496 0-6.023-2.475-6.023-6.635v-.205c0-4.083 2.552-6.968 6.228-6.968 2.22 0 3.599 1.072 4.365 2.374V8h2.118v19.73h-2.118v-2.297c-.766 1.302-2.63 2.527-4.57 2.527zm16.515 0c-3.803 0-6.534-2.883-6.534-6.789v-.204c0-4.007 2.782-6.815 6.56-6.815 3.777 0 6.56 2.782 6.56 6.79v.204c0 4.033-2.783 6.815-6.586 6.815zm.025-1.76c2.68 0 4.365-2.017 4.365-5.029v-.178c0-3.089-1.71-5.08-4.365-5.08-2.68 0-4.364 1.991-4.364 5.054v.204c0 3.038 1.659 5.029 4.364 5.029zm15.391 1.76c-3.726 0-6.534-2.628-6.534-6.763v-.204c0-4.084 2.91-6.84 6.483-6.84 2.783 0 5.386 1.276 5.794 4.67h-2.093c-.331-2.118-1.863-2.91-3.7-2.91-2.425 0-4.289 1.94-4.289 5.08v.204c0 3.267 1.787 5.003 4.365 5.003 1.889 0 3.599-1.098 3.829-3.267h1.965c-.28 2.884-2.604 5.028-5.82 5.028zm14.145 0c-3.19 0-5.104-1.607-5.232-4.338h2.067c.154 1.582.996 2.578 3.14 2.578 2.016 0 2.91-.69 2.91-2.119 0-1.404-1.047-1.863-3.114-2.246-3.472-.638-4.646-1.608-4.646-3.93 0-2.476 2.425-3.753 4.518-3.753 2.4 0 4.467.97 4.824 3.854h-2.042c-.306-1.454-1.123-2.093-2.808-2.093-1.531 0-2.526.766-2.526 1.915 0 1.2.663 1.684 3.114 2.118 2.756.51 4.696 1.123 4.696 3.957 0 2.424-1.66 4.058-4.9 4.058z"/>
    </g>
</svg>
